<svg width="10" height="11" viewBox="0 0 10 11" fill="none" xmlns="http://www.w3.org/2000/svg">
<g clip-path="url(#clip0_704_4)">
<path d="M5 0.623779C2.2375 0.623779 0 2.86253 0 5.62378C0 7.83336 1.4325 9.70711 3.41875 10.3675C3.66875 10.4146 3.76042 10.26 3.76042 10.1271C3.76042 10.0084 3.75625 9.69378 3.75417 9.27711C2.36333 9.57878 2.07 8.60628 2.07 8.60628C1.8425 8.0292 1.51375 7.87503 1.51375 7.87503C1.06083 7.56503 1.54875 7.57128 1.54875 7.57128C2.05083 7.60628 2.31458 8.08628 2.31458 8.08628C2.76042 8.85086 3.485 8.63003 3.77083 8.50211C3.81583 8.17878 3.94458 7.95836 4.0875 7.83336C2.97708 7.70836 1.81 7.27836 1.81 5.36253C1.81 4.8167 2.00375 4.37086 2.32458 4.02086C2.26833 3.89461 2.09958 3.38628 2.36833 2.69753C2.36833 2.69753 2.78708 2.56336 3.74333 3.21003C4.14333 3.09878 4.56833 3.04378 4.99333 3.04128C5.41833 3.04378 5.84333 3.09878 6.24333 3.21003C7.19333 2.56336 7.61208 2.69753 7.61208 2.69753C7.88083 3.38628 7.71208 3.89461 7.66208 4.02086C7.98083 4.37086 8.17458 4.8167 8.17458 5.36253C8.17458 7.28336 7.00583 7.70628 5.89333 7.8292C6.06833 7.9792 6.23083 8.28586 6.23083 8.7542C6.23083 9.42336 6.22458 9.96086 6.22458 10.1234C6.22458 10.2546 6.31208 10.4109 6.56833 10.3609C8.56875 9.70503 10 7.83003 10 5.62378C10 2.86253 7.76125 0.623779 5 0.623779Z" fill="#333333"/>
</g>
<defs>
<clipPath id="clip0_704_4">
<rect width="10" height="10" fill="white" transform="translate(0 0.5)"/>
</clipPath>
</defs>
</svg>
