<svg width="10" height="11" viewBox="0 0 10 11" fill="none" xmlns="http://www.w3.org/2000/svg">
<g clip-path="url(#clip0_704_218)">
<path d="M9.9902 3.17369C9.94645 4.14786 9.26562 5.48324 7.95104 7.17736C6.58941 8.94695 5.44029 9.83149 4.49695 9.83149C3.90987 9.83149 3.42279 9.29232 3.01654 8.2144L2.21741 5.25032C1.91783 4.17365 1.59741 3.63449 1.25408 3.63449C1.1795 3.63449 0.918246 3.79199 0.470371 4.10615L-4.57764e-05 3.49907C0.489434 3.06827 0.975698 2.63383 1.4587 2.19578C2.11662 1.62578 2.61079 1.32703 2.9395 1.29619C3.71741 1.22119 4.19616 1.75453 4.37575 2.89536C4.5695 4.12578 4.7045 4.89078 4.78033 5.1899C5.00487 6.21074 5.25154 6.72074 5.52029 6.72074C5.72945 6.72074 6.04362 6.38907 6.46404 5.72699C6.88237 5.0649 7.1057 4.56157 7.1357 4.21532C7.1957 3.64407 6.97112 3.35657 6.4632 3.35657C6.22404 3.35657 5.97695 3.40699 5.72279 3.51949C6.21695 1.90786 7.15362 1.12082 8.54025 1.17082C9.57062 1.19582 10.0519 1.86415 9.99562 3.16953L9.9902 3.17369Z" fill="#333333"/>
</g>
<defs>
<clipPath id="clip0_704_218">
<rect width="10" height="10" fill="white" transform="translate(0 0.5)"/>
</clipPath>
</defs>
</svg>
